<svg width="144" height="23" viewBox="0 0 144 23" fill="none" xmlns="http://www.w3.org/2000/svg">
<path d="M10.34 22.2401C13.04 22.2401 15.26 20.8601 15.95 18.7901V22.0001H19.94V13.9001C19.94 12.0701 18.5 10.5101 16.55 10.5101H10.85V13.9001H14.9C15.41 13.9001 15.74 14.2301 15.74 14.7401C15.74 16.6901 13.16 18.5801 10.55 18.5801C7.07002 18.5801 4.31002 15.8501 4.31002 11.5001C4.31002 7.15006 7.07002 4.63006 10.64 4.63006C13.34 4.63006 15.2 6.10006 15.53 8.35006H20C19.73 3.85006 15.95 0.76006 10.67 0.76006C5.12002 0.76006 0.0200195 4.33006 0.0200195 11.5001C0.0200195 18.6701 4.97002 22.2401 10.34 22.2401Z" fill="#5D6491"/>
<path d="M21.6528 22.0001H25.8228V0.310059H21.6528V22.0001Z" fill="#5D6491"/>
<path d="M34.8179 22.2401C39.4679 22.2401 42.7979 18.9401 42.7979 14.4401C42.7979 9.94006 39.4679 6.64006 34.8179 6.64006C30.1679 6.64006 26.8379 9.94006 26.8379 14.4401C26.8379 18.9401 30.1679 22.2401 34.8179 22.2401ZM34.8179 18.6401C32.5679 18.6401 31.0379 16.9301 31.0379 14.4401C31.0379 11.9201 32.5679 10.2101 34.8179 10.2101C37.0679 10.2101 38.5979 11.9201 38.5979 14.4401C38.5979 16.9301 37.0679 18.6401 34.8179 18.6401Z" fill="#5D6491"/>
<path d="M52.1288 22.2401C56.5989 22.2401 59.2688 19.1501 59.2688 14.4401C59.2688 9.73006 56.5988 6.64006 52.1888 6.64006C50.2988 6.64006 48.8288 7.36006 47.9888 8.47006V0.310059H43.8188V22.0001H47.9888V20.3501C48.8288 21.5201 50.3888 22.2401 52.1288 22.2401ZM51.4688 18.6401C49.2188 18.6401 47.7488 16.9601 47.7488 14.4401C47.7488 11.8901 49.2188 10.2101 51.4688 10.2101C53.6589 10.2101 55.1588 11.8901 55.1588 14.4401C55.1588 16.9601 53.6589 18.6401 51.4688 18.6401Z" fill="#5D6491"/>
<path d="M66.2492 6.64006C62.1092 6.64006 59.6492 9.07006 59.4692 12.1001H63.1892C63.2492 10.8401 64.1792 9.70006 66.0092 9.70006C67.7192 9.70006 68.7092 10.5701 68.7092 11.8301C68.7092 12.4601 68.3192 12.9401 67.5692 12.9401H65.0192C61.7192 12.9401 59.4992 14.7401 59.4992 17.7101C59.4992 20.2901 61.5092 22.2401 64.4492 22.2401C66.5192 22.2401 68.1992 21.3101 68.7092 19.9001V22.0001H72.8492V12.2801C72.8492 8.86006 70.0592 6.64006 66.2492 6.64006ZM65.4992 19.2101C64.3292 19.2101 63.4892 18.5201 63.4892 17.5301C63.4892 16.3601 64.3892 15.5801 65.6492 15.5801H68.7092V15.7901C68.7092 17.7101 67.5392 19.2101 65.4992 19.2101Z" fill="#5D6491"/>
<path d="M74.4517 22.0001H78.6217V0.310059H74.4517V22.0001Z" fill="#5D6491"/>
<path d="M80.8367 22.0001H89.4167C93.8567 22.0001 96.9167 19.7201 96.9167 15.7301C96.9167 12.9701 95.2967 11.2901 93.3767 10.5401C94.6067 9.88006 95.8367 8.38006 95.8367 6.40006C95.8367 2.89006 92.9867 1.00006 89.1767 1.00006H80.8367V22.0001ZM85.2767 9.01006V4.57006H88.7567C90.7667 4.57006 91.6667 5.38006 91.6667 6.79006C91.6667 8.20006 90.7667 9.01006 88.8467 9.01006H85.2767ZM85.2767 18.1001V12.8201H89.0267C91.5167 12.8201 92.6267 13.7801 92.6267 15.4901C92.6267 17.2001 91.5167 18.1001 89.0267 18.1001H85.2767Z" fill="#5D6491"/>
<path d="M104.171 6.64006C100.031 6.64006 97.5711 9.07006 97.3911 12.1001H101.111C101.171 10.8401 102.101 9.70006 103.931 9.70006C105.641 9.70006 106.631 10.5701 106.631 11.8301C106.631 12.4601 106.241 12.9401 105.491 12.9401H102.941C99.6411 12.9401 97.4211 14.7401 97.4211 17.7101C97.4211 20.2901 99.4311 22.2401 102.371 22.2401C104.441 22.2401 106.121 21.3101 106.631 19.9001V22.0001H110.771V12.2801C110.771 8.86006 107.981 6.64006 104.171 6.64006ZM103.421 19.2101C102.251 19.2101 101.411 18.5201 101.411 17.5301C101.411 16.3601 102.311 15.5801 103.571 15.5801H106.631V15.7901C106.631 17.7101 105.461 19.2101 103.421 19.2101Z" fill="#5D6491"/>
<path d="M112.134 22.0001H116.334V13.7201C116.334 11.7701 117.624 10.3601 119.454 10.3601C121.194 10.3601 122.364 11.6801 122.364 13.5101V22.0001H126.564V12.5801C126.564 9.10006 124.344 6.64006 120.924 6.64006C118.854 6.64006 117.174 7.51006 116.334 8.98006V6.88006H112.134V22.0001Z" fill="#5D6491"/>
<path d="M138.534 22.0001H143.574L137.064 12.8201L143.094 6.88006H137.814L132.564 12.0401V0.310059H128.364V22.0001H132.564V17.2601L134.244 15.6101L138.534 22.0001Z" fill="#5D6491"/>
</svg>
