<svg width="117" height="30" viewBox="0 0 117 30" fill="none" xmlns="http://www.w3.org/2000/svg">
<path d="M4.79107 18.3452H10.8391V21.9092H0.174072V2.95523H4.79107V18.3452Z" fill="#5D6491"/>
<path d="M15.0933 5.27723C14.2833 5.27723 13.6173 5.04323 13.0953 4.57523C12.5913 4.08923 12.3393 3.49523 12.3393 2.79323C12.3393 2.07323 12.5913 1.47923 13.0953 1.01123C13.6173 0.525227 14.2833 0.282227 15.0933 0.282227C15.8853 0.282227 16.5333 0.525227 17.0373 1.01123C17.5593 1.47923 17.8203 2.07323 17.8203 2.79323C17.8203 3.49523 17.5593 4.08923 17.0373 4.57523C16.5333 5.04323 15.8853 5.27723 15.0933 5.27723ZM17.3883 6.84323V21.9092H12.7713V6.84323H17.3883Z" fill="#5D6491"/>
<path d="M26.1882 6.62723C27.2502 6.62723 28.1772 6.84323 28.9692 7.27523C29.7792 7.70723 30.4002 8.27423 30.8321 8.97623V6.84323H35.4492V21.8822C35.4492 23.2682 35.1702 24.5192 34.6122 25.6352C34.0722 26.7692 33.2351 27.6692 32.1012 28.3352C30.9852 29.0012 29.5902 29.3342 27.9162 29.3342C25.6842 29.3342 23.8751 28.8032 22.4891 27.7412C21.1031 26.6972 20.3111 25.2752 20.1131 23.4752H24.6761C24.8201 24.0512 25.1621 24.5012 25.7022 24.8252C26.2422 25.1672 26.9081 25.3382 27.7001 25.3382C28.6542 25.3382 29.4102 25.0592 29.9682 24.5012C30.5442 23.9612 30.8321 23.0882 30.8321 21.8822V19.7492C30.3822 20.4512 29.7612 21.0272 28.9692 21.4772C28.1772 21.9092 27.2502 22.1252 26.1882 22.1252C24.9461 22.1252 23.8211 21.8102 22.8132 21.1802C21.8052 20.5322 21.0042 19.6232 20.4102 18.4532C19.8342 17.2652 19.5462 15.8972 19.5462 14.3492C19.5462 12.8012 19.8342 11.4422 20.4102 10.2722C21.0042 9.10223 21.8052 8.20223 22.8132 7.57223C23.8211 6.94223 24.9461 6.62723 26.1882 6.62723ZM30.8321 14.3762C30.8321 13.2242 30.5082 12.3152 29.8602 11.6492C29.2302 10.9832 28.4562 10.6502 27.5381 10.6502C26.6201 10.6502 25.8371 10.9832 25.1891 11.6492C24.5591 12.2972 24.2442 13.1972 24.2442 14.3492C24.2442 15.5012 24.5591 16.4192 25.1891 17.1032C25.8371 17.7692 26.6201 18.1022 27.5381 18.1022C28.4562 18.1022 29.2302 17.7692 29.8602 17.1032C30.5082 16.4372 30.8321 15.5282 30.8321 14.3762Z" fill="#5D6491"/>
<path d="M47.7803 6.68123C49.5083 6.68123 50.8943 7.25723 51.9383 8.40923C52.9823 9.54323 53.5043 11.1092 53.5043 13.1072V21.9092H48.9143V13.7282C48.9143 12.7202 48.6533 11.9372 48.1313 11.3792C47.6093 10.8212 46.9073 10.5422 46.0253 10.5422C45.1433 10.5422 44.4413 10.8212 43.9193 11.3792C43.3973 11.9372 43.1363 12.7202 43.1363 13.7282V21.9092H38.5193V1.92923H43.1363V8.86823C43.6043 8.20223 44.2433 7.67123 45.0533 7.27523C45.8633 6.87923 46.7723 6.68123 47.7803 6.68123Z" fill="#5D6491"/>
<path d="M64.8397 17.9942V21.9092H62.4907C60.8167 21.9092 59.5117 21.5042 58.5757 20.6942C57.6397 19.8662 57.1717 18.5252 57.1717 16.6712V10.6772H55.3357V6.84323H57.1717V3.17123H61.7887V6.84323H64.8127V10.6772H61.7887V16.7252C61.7887 17.1752 61.8967 17.4992 62.1127 17.6972C62.3287 17.8952 62.6887 17.9942 63.1927 17.9942H64.8397Z" fill="#5D6491"/>
<path d="M71.7585 8.97623C72.1905 8.27423 72.8115 7.70723 73.6215 7.27523C74.4314 6.84323 75.3585 6.62723 76.4025 6.62723C77.6444 6.62723 78.7694 6.94223 79.7775 7.57223C80.7855 8.20223 81.5775 9.10223 82.1535 10.2722C82.7475 11.4422 83.0445 12.8012 83.0445 14.3492C83.0445 15.8972 82.7475 17.2652 82.1535 18.4532C81.5775 19.6232 80.7855 20.5322 79.7775 21.1802C78.7694 21.8102 77.6444 22.1252 76.4025 22.1252C75.3405 22.1252 74.4135 21.9182 73.6215 21.5042C72.8295 21.0722 72.2085 20.5052 71.7585 19.8032V21.9092H67.1415V1.92923H71.7585V8.97623ZM78.3465 14.3492C78.3465 13.1972 78.0225 12.2972 77.3745 11.6492C76.7445 10.9832 75.9614 10.6502 75.0255 10.6502C74.1075 10.6502 73.3245 10.9832 72.6765 11.6492C72.0465 12.3152 71.7315 13.2242 71.7315 14.3762C71.7315 15.5282 72.0465 16.4372 72.6765 17.1032C73.3245 17.7692 74.1075 18.1022 75.0255 18.1022C75.9435 18.1022 76.7264 17.7692 77.3745 17.1032C78.0225 16.4192 78.3465 15.5012 78.3465 14.3492Z" fill="#5D6491"/>
<path d="M92.0546 22.1252C90.5786 22.1252 89.2467 21.8102 88.0586 21.1802C86.8886 20.5502 85.9616 19.6502 85.2776 18.4802C84.6116 17.3102 84.2786 15.9422 84.2786 14.3762C84.2786 12.8282 84.6206 11.4692 85.3046 10.2992C85.9886 9.11123 86.9246 8.20223 88.1126 7.57223C89.3006 6.94223 90.6326 6.62723 92.1086 6.62723C93.5846 6.62723 94.9166 6.94223 96.1046 7.57223C97.2926 8.20223 98.2286 9.11123 98.9126 10.2992C99.5966 11.4692 99.9386 12.8282 99.9386 14.3762C99.9386 15.9242 99.5876 17.2922 98.8856 18.4802C98.2016 19.6502 97.2566 20.5502 96.0506 21.1802C94.8626 21.8102 93.5306 22.1252 92.0546 22.1252ZM92.0546 18.1292C92.9366 18.1292 93.6836 17.8052 94.2956 17.1572C94.9256 16.5092 95.2406 15.5822 95.2406 14.3762C95.2406 13.1702 94.9346 12.2432 94.3226 11.5952C93.7286 10.9472 92.9906 10.6232 92.1086 10.6232C91.2086 10.6232 90.4616 10.9472 89.8676 11.5952C89.2736 12.2252 88.9766 13.1522 88.9766 14.3762C88.9766 15.5822 89.2646 16.5092 89.8406 17.1572C90.4346 17.8052 91.1726 18.1292 92.0546 18.1292Z" fill="#5D6491"/>
<path d="M111.028 21.9092L108.139 17.7242L105.709 21.9092H100.714L105.682 14.2142L100.579 6.84323H105.763L108.652 11.0012L111.082 6.84323H116.077L111.028 14.4302L116.212 21.9092H111.028Z" fill="#5D6491"/>
</svg>
