<svg width="39" height="44" viewBox="0 0 39 44" fill="none" xmlns="http://www.w3.org/2000/svg">
<path fill-rule="evenodd" clip-rule="evenodd" d="M20.2655 1.44802C19.7605 1.34415 19.2396 1.34415 18.7345 1.44802C18.1507 1.56809 17.6289 1.86035 17.2141 2.0927L17.101 2.15587L3.04153 9.96669C3.00266 9.98829 2.96261 10.0103 2.92157 10.033C2.48243 10.2748 1.93029 10.5789 1.50627 11.0391C1.13967 11.4369 0.862246 11.9084 0.692535 12.422C0.49624 13.0161 0.498537 13.6465 0.500363 14.1478C0.500534 14.1947 0.5007 14.2404 0.5007 14.2849V29.7068C0.5007 29.7513 0.500534 29.797 0.500363 29.8438C0.498537 30.3452 0.49624 30.9755 0.692536 31.5697C0.862247 32.0833 1.13968 32.5548 1.50627 32.9526C1.93029 33.4127 2.48244 33.7168 2.92157 33.9587C2.96261 33.9813 3.00266 34.0034 3.04153 34.025L17.101 41.8358L17.2141 41.899C17.6289 42.1313 18.1507 42.4236 18.7345 42.5436C19.2396 42.6475 19.7605 42.6475 20.2655 42.5436C20.8493 42.4236 21.3711 42.1313 21.7859 41.899L21.899 41.8358L35.9585 34.025C35.9757 34.0154 35.9931 34.0058 36.0107 33.9961C36.0329 33.9838 36.0555 33.9713 36.0784 33.9587C36.5176 33.7169 37.0697 33.4127 37.4937 32.9526C37.8603 32.5548 38.1378 32.0833 38.3075 31.5697C38.5038 30.9755 38.5015 30.3452 38.4996 29.8438C38.4995 29.797 38.4993 29.7513 38.4993 29.7068V14.2849C38.4993 14.2404 38.4995 14.1947 38.4996 14.1478C38.5015 13.6465 38.5038 13.0161 38.3075 12.422C38.1378 11.9084 37.8603 11.4369 37.4937 11.0391C37.0697 10.5789 36.5176 10.2748 36.0784 10.0329L36.0769 10.0321C36.0364 10.0098 35.9968 9.98801 35.9585 9.96669L21.899 2.15586L21.7859 2.09269C21.3711 1.86035 20.8493 1.56809 20.2655 1.44802ZM18.9464 5.47754C19.2343 5.31759 19.3813 5.23676 19.4909 5.18388L19.5 5.17953L19.5091 5.18388C19.6187 5.23676 19.7657 5.31758 20.0536 5.47754L32.6871 12.4961L19.4999 19.8223L6.31285 12.4962L18.9464 5.47754ZM4.30056 15.7251L17.6 23.1137L17.6001 37.7662L4.88691 30.7033C4.58301 30.5345 4.42785 30.4474 4.31899 30.378L4.3098 30.3721L4.30911 30.3612C4.30135 30.2324 4.30056 30.0545 4.30056 29.7068V15.7251Z" fill="#5D6491"/>
</svg>
