<svg width="40" height="44" viewBox="0 0 40 44" fill="none" xmlns="http://www.w3.org/2000/svg">
<path opacity="0.8" fill-rule="evenodd" clip-rule="evenodd" d="M20.0294 34.4667C26.1414 34.4667 31.0961 28.8851 31.0961 22C31.0961 15.1148 26.1414 9.53333 20.0294 9.53333C13.9175 9.53333 8.96274 15.1148 8.96274 22C8.96274 28.8851 13.9175 34.4667 20.0294 34.4667ZM20.0294 44C30.8152 44 39.5588 34.1503 39.5588 22C39.5588 9.84974 30.8152 0 20.0294 0C9.24361 0 0.5 9.84974 0.5 22C0.5 34.1503 9.24361 44 20.0294 44Z" fill="#5D6491"/>
<path opacity="0.6" d="M20.2528 22.4819C22.2866 20.1908 25.584 20.1908 27.6178 22.4819L37.7447 33.8898C39.7785 36.1809 39.7785 39.8955 37.7447 42.1866V42.1866C35.7109 44.4776 32.4135 44.4776 30.3797 42.1866L20.2528 30.7786C18.219 28.4875 18.219 24.7729 20.2528 22.4819V22.4819Z" fill="#5D6491"/>
<path d="M23.0963 33.9816L29.5279 41.2269C32.6129 39.2887 35.183 36.4357 36.9492 32.9936L30.5702 25.8076C29.4498 29.747 26.6373 32.8334 23.0963 33.9816Z" fill="#5D6491"/>
</svg>
