<svg width="116" height="28" viewBox="0 0 116 28" fill="none" xmlns="http://www.w3.org/2000/svg">
<path d="M20.09 25.0999C19.5266 25.8839 18.8389 26.4812 18.0269 26.8919C17.2316 27.3025 16.3533 27.5079 15.3922 27.5079C14.0997 27.5079 12.9315 27.1905 11.8876 26.5559C10.8437 25.9399 9.65059 24.8385 8.30839 23.2519C6.7342 23.0279 5.32572 22.4585 4.08294 21.5439C2.85672 20.6292 1.89564 19.4532 1.19968 18.0159C0.520297 16.5599 0.180603 14.9545 0.180603 13.1999C0.180603 11.2772 0.586578 9.55054 1.39853 8.01987C2.22705 6.47053 3.36212 5.2572 4.80375 4.37987C6.26194 3.50253 7.89413 3.06387 9.7003 3.06387C11.5065 3.06387 13.1304 3.50253 14.572 4.37987C16.0136 5.2572 17.1487 6.47053 17.9772 8.01987C18.8057 9.55054 19.22 11.2772 19.22 13.1999C19.22 15.4772 18.6483 17.4745 17.505 19.1919C16.3782 20.9092 14.8786 22.1039 13.0061 22.7759C13.4204 23.2612 13.8181 23.6065 14.1992 23.8119C14.5969 24.0359 15.0194 24.1479 15.4668 24.1479C16.5439 24.1479 17.4884 23.6625 18.3003 22.6919L20.09 25.0999ZM4.25692 13.1999C4.25692 14.4132 4.48891 15.4959 4.95288 16.4479C5.43342 17.3999 6.08795 18.1465 6.91648 18.6879C7.745 19.2105 8.67294 19.4719 9.7003 19.4719C10.7277 19.4719 11.6556 19.2105 12.4841 18.6879C13.3127 18.1465 13.9589 17.3999 14.4229 16.4479C14.9034 15.4959 15.1437 14.4132 15.1437 13.1999C15.1437 11.9865 14.9034 10.9039 14.4229 9.95187C13.9589 8.99987 13.3127 8.26254 12.4841 7.73987C11.6556 7.19854 10.7277 6.92787 9.7003 6.92787C8.67294 6.92787 7.745 7.19854 6.91648 7.73987C6.08795 8.26254 5.43342 8.99987 4.95288 9.95187C4.48891 10.9039 4.25692 11.9865 4.25692 13.1999Z" fill="#5D6491"/>
<path d="M35.4445 7.93587V22.9999H31.7659V21.2079C31.2522 21.8612 30.6391 22.3652 29.9266 22.7199C29.214 23.0559 28.4435 23.2239 27.615 23.2239C25.8585 23.2239 24.4666 22.6545 23.4392 21.5159C22.4119 20.3772 21.8982 18.6879 21.8982 16.4479V7.93587H25.7757V15.8039C25.7757 18.2305 26.6788 19.4439 28.4849 19.4439C29.4129 19.4439 30.1585 19.1079 30.7219 18.4359C31.2853 17.7452 31.567 16.7279 31.567 15.3839V7.93587H35.4445Z" fill="#5D6491"/>
<path d="M45.3998 23.2239C43.9913 23.2239 42.7236 22.8972 41.5969 22.2439C40.4866 21.5719 39.6167 20.6479 38.987 19.4719C38.3573 18.2959 38.0425 16.9612 38.0425 15.4679C38.0425 13.9745 38.3573 12.6399 38.987 11.4639C39.6167 10.2879 40.4866 9.3732 41.5969 8.71987C42.7236 8.04787 43.9913 7.71187 45.3998 7.71187C46.8083 7.71187 48.0676 8.04787 49.1778 8.71987C50.288 9.3732 51.158 10.2879 51.7877 11.4639C52.4173 12.6399 52.7322 13.9745 52.7322 15.4679C52.7322 16.9612 52.4173 18.2959 51.7877 19.4719C51.158 20.6479 50.288 21.5719 49.1778 22.2439C48.0676 22.8972 46.8083 23.2239 45.3998 23.2239ZM45.3998 19.6399C46.394 19.6399 47.2059 19.2665 47.8356 18.5199C48.4819 17.7545 48.805 16.7372 48.805 15.4679C48.805 14.1985 48.4819 13.1905 47.8356 12.4439C47.2059 11.6785 46.394 11.2959 45.3998 11.2959C44.4055 11.2959 43.5853 11.6785 42.9391 12.4439C42.2928 13.1905 41.9697 14.1985 41.9697 15.4679C41.9697 16.7372 42.2928 17.7545 42.9391 18.5199C43.5853 19.2665 44.4055 19.6399 45.3998 19.6399Z" fill="#5D6491"/>
<path d="M63.9488 22.2719C63.5677 22.5892 63.0955 22.8319 62.5321 22.9999C61.9853 23.1492 61.4053 23.2239 60.7922 23.2239C59.2014 23.2239 57.9669 22.7665 57.0887 21.8519C56.227 20.9372 55.7962 19.5932 55.7962 17.8199V11.6319H53.7332V8.27187H55.7962V4.60387H59.6737V8.27187H63.0043V11.6319H59.6737V17.7639C59.6737 18.3985 59.8145 18.8932 60.0962 19.2479C60.3945 19.5839 60.8088 19.7519 61.339 19.7519C61.9521 19.7519 62.4741 19.5652 62.9049 19.1919L63.9488 22.2719Z" fill="#5D6491"/>
<path d="M66.1255 7.93587H70.0029V22.9999H66.1255V7.93587ZM68.0642 5.83587C67.3517 5.83587 66.7717 5.60253 66.3243 5.13587C65.8769 4.6692 65.6532 4.09053 65.6532 3.39987C65.6532 2.7092 65.8769 2.13053 66.3243 1.66387C66.7717 1.1972 67.3517 0.963867 68.0642 0.963867C68.7767 0.963867 69.3567 1.18787 69.8041 1.63587C70.2515 2.08387 70.4752 2.64387 70.4752 3.31587C70.4752 4.04387 70.2515 4.65053 69.8041 5.13587C69.3567 5.60253 68.7767 5.83587 68.0642 5.83587Z" fill="#5D6491"/>
<path d="M86.7005 15.5239C86.7005 15.5799 86.6756 15.9719 86.6259 16.6999H76.5097C76.6919 17.6332 77.1228 18.3705 77.8022 18.9119C78.4816 19.4532 79.3266 19.7239 80.3374 19.7239C81.0334 19.7239 81.6465 19.6119 82.1768 19.3879C82.7236 19.1452 83.229 18.7719 83.6929 18.2679L85.756 20.7879C84.4966 22.4119 82.6573 23.2239 80.238 23.2239C78.7301 23.2239 77.3962 22.8972 76.2363 22.2439C75.0763 21.5719 74.1815 20.6479 73.5519 19.4719C72.9222 18.2959 72.6073 16.9612 72.6073 15.4679C72.6073 13.9932 72.9139 12.6679 73.527 11.4919C74.1567 10.2972 75.0101 9.3732 76.0871 8.71987C77.1808 8.04787 78.3987 7.71187 79.7409 7.71187C81.05 7.71187 82.2347 8.0292 83.2953 8.66387C84.3558 9.29854 85.1843 10.2132 85.7808 11.4079C86.3939 12.5839 86.7005 13.9559 86.7005 15.5239ZM79.7658 11.0159C78.8875 11.0159 78.1501 11.2959 77.5536 11.8559C76.9571 12.4159 76.5925 13.1812 76.46 14.1519H83.0467C82.9141 13.1999 82.5496 12.4439 81.9531 11.8839C81.3565 11.3052 80.6274 11.0159 79.7658 11.0159Z" fill="#5D6491"/>
<path d="M97.4097 7.71187C99.0668 7.71187 100.401 8.27187 101.412 9.39187C102.439 10.5119 102.953 12.1732 102.953 14.3759V22.9999H99.0751V15.0479C99.0751 13.8532 98.8431 12.9665 98.3791 12.3879C97.9151 11.7905 97.244 11.4919 96.3658 11.4919C95.3882 11.4919 94.6093 11.8372 94.0294 12.5279C93.4494 13.1999 93.1594 14.2079 93.1594 15.5519V22.9999H89.282V7.93587H92.9855V9.69987C93.4991 9.0652 94.1371 8.57987 94.8993 8.24387C95.6616 7.8892 96.4984 7.71187 97.4097 7.71187Z" fill="#5D6491"/>
<path d="M115.092 22.2719C114.711 22.5892 114.239 22.8319 113.675 22.9999C113.129 23.1492 112.549 23.2239 111.936 23.2239C110.345 23.2239 109.11 22.7665 108.232 21.8519C107.37 20.9372 106.94 19.5932 106.94 17.8199V11.6319H104.877V8.27187H106.94V4.60387H110.817V8.27187H114.148V11.6319H110.817V17.7639C110.817 18.3985 110.958 18.8932 111.24 19.2479C111.538 19.5839 111.952 19.7519 112.482 19.7519C113.095 19.7519 113.617 19.5652 114.048 19.1919L115.092 22.2719Z" fill="#5D6491"/>
</svg>
